<svg width="24" height="25" viewBox="0 0 24 25" fill="none" xmlns="http://www.w3.org/2000/svg">
<g clip-path="url(#clip0_30_5917)">
<path d="M21.792 18.9533C21.429 19.7918 20.9994 20.5636 20.5016 21.2732C19.8231 22.2406 19.2676 22.9102 18.8395 23.2821C18.1758 23.8924 17.4647 24.205 16.7032 24.2228C16.1566 24.2228 15.4973 24.0672 14.73 23.7517C13.9601 23.4376 13.2525 23.2821 12.6056 23.2821C11.9271 23.2821 11.1994 23.4376 10.4211 23.7517C9.64153 24.0672 9.01355 24.2317 8.53342 24.2479C7.80322 24.2791 7.07539 23.9576 6.3489 23.2821C5.88521 22.8776 5.30523 22.1843 4.61043 21.2021C3.86498 20.1533 3.25211 18.937 2.77198 17.5504C2.25777 16.0526 2 14.6023 2 13.1982C2 11.5898 2.34754 10.2026 3.04367 9.04011C3.59076 8.10636 4.31859 7.36979 5.22953 6.82906C6.14046 6.28834 7.12473 6.01279 8.18469 5.99516C8.76467 5.99516 9.52524 6.17457 10.4704 6.52715C11.4129 6.88091 12.0181 7.06032 12.2834 7.06032C12.4817 7.06032 13.154 6.85054 14.2937 6.43234C15.3714 6.0445 16.281 5.88391 17.0262 5.94717C19.0454 6.11012 20.5624 6.9061 21.5712 8.34013C19.7654 9.43432 18.8721 10.9669 18.8898 12.9329C18.9061 14.4642 19.4617 15.7386 20.5535 16.7504C21.0483 17.22 21.6009 17.583 22.2156 17.8407C22.0823 18.2274 21.9416 18.5977 21.792 18.9533ZM17.161 0.730137C17.161 1.93041 16.7225 3.0511 15.8484 4.08841C14.7937 5.32155 13.5179 6.03413 12.1343 5.92168C12.1167 5.77769 12.1065 5.62614 12.1065 5.46688C12.1065 4.31462 12.6081 3.08147 13.4989 2.07321C13.9436 1.5627 14.5092 1.13823 15.1951 0.799615C15.8796 0.466055 16.5269 0.281589 17.1358 0.25C17.1536 0.410458 17.161 0.570926 17.161 0.730121V0.730137Z" fill="black"/>
</g>
<defs>
<clipPath id="clip0_30_5917">
<rect y="0.25" width="24" height="24" rx="12" fill="white"/>
</clipPath>
</defs>
</svg>
