<svg width="24" height="25" viewBox="0 0 24 25" fill="none" xmlns="http://www.w3.org/2000/svg">
<g clip-path="url(#clip0_30_5909)">
<path d="M23.7662 10.3996H22.7996V10.3498H11.9998V15.1498H18.7815C17.7921 17.9439 15.1335 19.9497 11.9998 19.9497C8.02366 19.9497 4.79992 16.7259 4.79992 12.7498C4.79992 8.77366 8.02366 5.54992 11.9998 5.54992C13.8352 5.54992 15.5049 6.2423 16.7763 7.37329L20.1705 3.97914C18.0273 1.98178 15.1605 0.75 11.9998 0.75C5.37291 0.75 0 6.12291 0 12.7498C0 19.3767 5.37291 24.7496 11.9998 24.7496C18.6267 24.7496 23.9996 19.3767 23.9996 12.7498C23.9996 11.9452 23.9168 11.1598 23.7662 10.3996Z" fill="#FFC107"/>
<path d="M1.38281 7.16449L5.32534 10.0558C6.39213 7.41468 8.97568 5.54992 11.999 5.54992C13.8344 5.54992 15.5042 6.2423 16.7755 7.37328L20.1697 3.97914C18.0265 1.98178 15.1598 0.75 11.999 0.75C7.38991 0.75 3.39278 3.35215 1.38281 7.16449Z" fill="#FF3D00"/>
<path d="M12 24.7491C15.0995 24.7491 17.9159 23.5629 20.0452 21.6339L16.3313 18.4912C15.086 19.4382 13.5644 19.9504 12 19.9492C8.87881 19.9492 6.22865 17.959 5.23027 15.1816L1.31714 18.1966C3.3031 22.0827 7.33623 24.7491 12 24.7491Z" fill="#4CAF50"/>
<path d="M23.7662 10.3994H22.7996V10.3496H11.9998V15.1495H18.7814C18.3082 16.4794 17.4557 17.6414 16.3293 18.4921L16.3311 18.4909L20.045 21.6336C19.7822 21.8724 23.9996 18.7495 23.9996 12.7496C23.9996 11.945 23.9168 11.1596 23.7662 10.3994Z" fill="#1976D2"/>
</g>
<defs>
<clipPath id="clip0_30_5909">
<rect y="0.75" width="24" height="24" rx="12" fill="white"/>
</clipPath>
</defs>
</svg>
