<svg width="63" height="40" viewBox="0 0 63 40" fill="none" xmlns="http://www.w3.org/2000/svg">
<path d="M6.00586 29.9638C6.00586 29.9638 32.789 28.9464 54.3347 29.9638C54.3347 29.9638 33.0546 23.6776 6.00586 29.9638Z" fill="#9302F2"/>
<path d="M23.2497 0.0976562L24.851 2.89803L14.1768 21.5105L17.2466 26.8457L14.1768 27.1718L10.9077 21.5105L23.2497 0.0976562Z" fill="#9302F2"/>
<path d="M36.9236 0.0976562L35.3242 2.89803L45.9965 21.5105L42.9286 26.8457L45.9965 27.1718L49.2655 21.5105L36.9236 0.0976562Z" fill="#9302F2"/>
<path d="M23.7828 26.4454H20.7149L17.8794 21.5105L30.1706 0.0976562L42.2938 21.3758L39.593 26.4454H36.324L39.1927 21.5769L30.0866 5.83314L21.0489 21.4441L23.7828 26.4454Z" fill="#9302F2"/>
<path d="M29.7857 19.377H26.8506V21.8453H29.7857V19.377Z" fill="#9302F2"/>
<path d="M26.8506 18.484H29.6705V15.9824C29.6705 15.9824 27.6102 15.957 26.8506 18.484Z" fill="#9302F2"/>
<path d="M30.4907 21.8418H33.4258V19.3734H30.4907V21.8418Z" fill="#9302F2"/>
<path d="M33.4239 18.484H30.6079V15.9824C30.6079 15.9824 32.6682 15.957 33.4239 18.484Z" fill="#9302F2"/>
<path d="M4.98467 39.7414C4.52709 39.8487 4.05837 39.9011 3.5884 39.8976C3.09627 39.9033 2.60723 39.8193 2.14525 39.6496C1.72435 39.4946 1.33911 39.2561 1.0126 38.9486C0.692978 38.6432 0.440278 38.2748 0.270521 37.8667C-0.0901738 36.96 -0.0901738 35.9496 0.270521 35.0429C0.440844 34.6325 0.69646 34.2631 1.02041 33.9591C1.34651 33.6587 1.72878 33.4257 2.14525 33.2736C2.59053 33.1107 3.06153 33.0293 3.53567 33.0334C4.02481 33.0286 4.5111 33.1085 4.97296 33.2697C5.37312 33.4007 5.74065 33.6158 6.05092 33.9005L5.05693 35.0331C4.88818 34.8446 4.68022 34.6953 4.44764 34.5957C4.17724 34.4786 3.88495 34.4207 3.59035 34.4258C3.32801 34.423 3.06798 34.4749 2.82679 34.5781C2.5965 34.6756 2.389 34.8199 2.2175 35.0019C2.04568 35.1885 1.91289 35.4076 1.82693 35.6463C1.72939 35.9066 1.68105 36.1827 1.68438 36.4606C1.68118 36.7425 1.72473 37.023 1.81327 37.2906C1.89513 37.5329 2.02836 37.7548 2.20383 37.9409C2.37925 38.1263 2.59324 38.271 2.83069 38.3647C3.10189 38.4704 3.39111 38.5221 3.68213 38.517C3.85812 38.5171 4.03381 38.5027 4.20744 38.474C4.36589 38.4486 4.52065 38.404 4.66831 38.3412V37.1441H3.42436V35.8728H6.10365V39.3274C5.74855 39.5096 5.37287 39.6486 4.98467 39.7414Z" fill="#9302F2"/>
<path d="M14.1923 36.4352C14.199 36.9197 14.108 37.4006 13.9247 37.8491C13.7569 38.2623 13.5048 38.6361 13.1846 38.9466C12.8596 39.2551 12.4757 39.4949 12.0559 39.6516C11.6017 39.8202 11.1206 39.9043 10.6361 39.8996C10.1536 39.9046 9.67429 39.8206 9.22229 39.6516C8.80385 39.4944 8.42131 39.2547 8.09745 38.9466C7.77727 38.6357 7.52465 38.2621 7.35538 37.8491C7.17368 37.4002 7.08338 36.9195 7.08979 36.4352C7.08227 35.9509 7.1726 35.47 7.35538 35.0214C7.52399 34.6149 7.77691 34.2488 8.09745 33.9473C8.42301 33.6471 8.80551 33.4154 9.22229 33.2658C9.67553 33.1022 10.1543 33.0209 10.6361 33.0256C11.1198 33.0213 11.6005 33.1026 12.0559 33.2658C12.474 33.4149 12.8579 33.6467 13.1846 33.9473C13.5052 34.2484 13.7575 34.6146 13.9247 35.0214C14.1091 35.4696 14.2001 35.9507 14.1923 36.4352ZM12.507 36.4352C12.5088 36.1648 12.4619 35.8962 12.3683 35.6424C12.2817 35.4081 12.1489 35.1936 11.9777 35.0116C11.813 34.8348 11.6136 34.6939 11.3919 34.5976C11.1522 34.4941 10.8933 34.4422 10.6322 34.4453C10.381 34.4416 10.1317 34.49 9.90015 34.5875C9.66856 34.685 9.4597 34.8294 9.28673 35.0116C9.11426 35.1926 8.98126 35.4074 8.89617 35.6424C8.71521 36.1628 8.71521 36.7291 8.89617 37.2496C8.98225 37.487 9.11506 37.7048 9.28673 37.8901C9.45026 38.0698 9.6499 38.2128 9.87258 38.31C10.1119 38.4104 10.3688 38.4621 10.6283 38.4621C10.8879 38.4621 11.1448 38.4104 11.3841 38.31C11.6059 38.2113 11.8052 38.0684 11.9699 37.8901C12.1421 37.7052 12.275 37.4873 12.3605 37.2496C12.4575 36.989 12.5071 36.7133 12.507 36.4352Z" fill="#9302F2"/>
<path d="M15.2334 39.7237V33.2012H16.825V38.3508H19.3441V39.7178L15.2334 39.7237Z" fill="#9302F2"/>
<path d="M26.171 36.4448C26.1845 36.956 26.0754 37.4629 25.8527 37.9231C25.6531 38.3224 25.3669 38.672 25.0149 38.9464C24.6639 39.2125 24.2666 39.4112 23.8432 39.5323C23.4125 39.6592 22.9662 39.7249 22.5172 39.7276H20.0801V33.2051H22.4391C22.8995 33.2042 23.3584 33.258 23.8061 33.3652C24.2361 33.466 24.643 33.6476 25.0051 33.9003C25.3645 34.1599 25.6554 34.5031 25.8527 34.9002C26.0798 35.3825 26.1889 35.912 26.171 36.4448ZM24.5306 36.4448C24.5413 36.1292 24.4799 35.8153 24.3509 35.527C24.2425 35.2951 24.0781 35.0937 23.8725 34.9412C23.6678 34.7946 23.4362 34.6897 23.1909 34.6326C22.9352 34.571 22.6729 34.5402 22.4098 34.5408H21.6287V38.3547H22.3747C22.6496 38.356 22.9237 38.3238 23.1909 38.259C23.4396 38.1981 23.6743 38.09 23.8823 37.9407C24.0869 37.7872 24.2511 37.5861 24.3607 37.3549C24.4848 37.0681 24.5428 36.7571 24.5306 36.4448Z" fill="#9302F2"/>
<path d="M27.2119 39.7237V33.2012H31.598V34.5272H28.7371V35.7633H31.4457V37.0248H28.7371V38.3742H31.764V39.7198L27.2119 39.7237Z" fill="#9302F2"/>
<path d="M36.9506 39.7237L34.324 35.4587H34.2967L34.3338 39.7237H32.8047V33.2012H34.5954L37.2122 37.4584H37.2396L37.2025 33.2012H38.7316V39.7237H36.9506Z" fill="#9302F2"/>
<path d="M47.0587 39.6084C46.5972 39.8098 46.0976 39.9091 45.5941 39.8994C45.1173 39.9047 44.6437 39.8206 44.1978 39.6514C43.7841 39.4929 43.4063 39.2532 43.0867 38.9464C42.7698 38.6362 42.5194 38.2648 42.3504 37.8548C42.1686 37.4099 42.0777 36.9332 42.0829 36.4527C42.0757 35.9665 42.1681 35.484 42.3544 35.0349C42.5261 34.6248 42.7823 34.2555 43.1062 33.9511C43.4313 33.6503 43.813 33.4173 44.2291 33.2656C45.1178 32.9427 46.0919 32.9427 46.9806 33.2656C47.3959 33.4085 47.7682 33.6544 48.0625 33.9804L46.9943 35.0544C46.8457 34.8516 46.6426 34.6951 46.4084 34.6033C46.1742 34.5071 45.9235 34.4574 45.6703 34.4569C45.4093 34.4533 45.1505 34.5045 44.9106 34.6072C44.6886 34.7055 44.4892 34.8485 44.3248 35.0271C44.1552 35.2102 44.0225 35.4244 43.9342 35.6579C43.8408 35.913 43.7945 36.1829 43.7975 36.4546C43.794 36.7314 43.8403 37.0066 43.9342 37.267C44.0229 37.5003 44.1555 37.7144 44.3248 37.8978C44.4899 38.0732 44.6893 38.2128 44.9106 38.3079C45.1466 38.4073 45.4005 38.4571 45.6566 38.4543C45.9409 38.4611 46.2225 38.398 46.4768 38.2708C46.699 38.1565 46.8916 37.992 47.0392 37.7904L48.1348 38.8234C47.8372 39.16 47.4701 39.4278 47.0587 39.6084Z" fill="#9302F2"/>
<path d="M48.8008 39.7237V33.2012H50.3845V39.7237H48.8008Z" fill="#9302F2"/>
<path d="M54.5146 34.5467V39.7237H52.9524V34.5467H51.1089V33.2012H56.3698V34.5467H54.5146Z" fill="#9302F2"/>
<path d="M60.1425 36.9604V39.7237H58.5665V36.9604L56.1157 33.2012H58.0295L59.4219 35.6149L60.8123 33.2012H62.6558L60.1425 36.9604Z" fill="#9302F2"/>
</svg>
