<svg width="73" height="72" viewBox="0 0 73 72" fill="none" xmlns="http://www.w3.org/2000/svg">
<path d="M39.875 22.5C39.875 23.1675 39.6771 23.82 39.3062 24.375C38.9354 24.9301 38.4083 25.3626 37.7916 25.6181C37.1749 25.8735 36.4963 25.9404 35.8416 25.8102C35.1869 25.6799 34.5855 25.3585 34.1135 24.8865C33.6415 24.4145 33.3201 23.8131 33.1899 23.1584C33.0596 22.5037 33.1265 21.8251 33.3819 21.2084C33.6374 20.5917 34.0699 20.0646 34.625 19.6938C35.18 19.3229 35.8325 19.125 36.5 19.125C37.3951 19.125 38.2536 19.4806 38.8865 20.1135C39.5194 20.7464 39.875 21.6049 39.875 22.5ZM65.75 36C65.75 41.7851 64.0345 47.4403 60.8205 52.2504C57.6065 57.0606 53.0382 60.8096 47.6935 63.0235C42.3488 65.2373 36.4676 65.8166 30.7936 64.688C25.1197 63.5593 19.9078 60.7736 15.8171 56.6829C11.7265 52.5922 8.94066 47.3803 7.81204 41.7064C6.68343 36.0324 7.26267 30.1512 9.47654 24.8065C11.6904 19.4618 15.4394 14.8935 20.2496 11.6795C25.0597 8.46548 30.7149 6.75 36.5 6.75C44.253 6.76487 51.6842 9.85133 57.1665 15.3335C62.6487 20.8158 65.7351 28.247 65.75 36ZM39.875 49.5C39.875 48.8325 39.6771 48.18 39.3062 47.625C38.9354 47.0699 38.4083 46.6374 37.7916 46.3819C37.1749 46.1265 36.4963 46.0596 35.8416 46.1898C35.1869 46.3201 34.5855 46.6415 34.1135 47.1135C33.6415 47.5855 33.3201 48.1869 33.1899 48.8416C33.0596 49.4963 33.1265 50.1749 33.3819 50.7916C33.6374 51.4083 34.0699 51.9354 34.625 52.3062C35.18 52.6771 35.8325 52.875 36.5 52.875C37.3951 52.875 38.2536 52.5194 38.8865 51.8865C39.5194 51.2535 39.875 50.3951 39.875 49.5ZM48.875 23.625C48.875 20.3429 47.5712 17.1953 45.2505 14.8746C42.9297 12.5538 39.7821 11.25 36.5 11.25C31.1383 11.2559 25.9234 13.0027 21.64 16.2278C17.3566 19.4529 14.2364 23.9817 12.7488 29.133C11.2611 34.2842 11.4865 39.7793 13.3911 44.7914C15.2956 49.8035 18.7763 54.0616 23.3094 56.925C22.3593 54.9611 21.8688 52.8066 21.875 50.625C21.875 46.7462 23.4159 43.0263 26.1586 40.2836C28.9013 37.5408 32.6212 36 36.5 36C39.7821 36 42.9297 34.6962 45.2505 32.3754C47.5712 30.0547 48.875 26.9071 48.875 23.625Z" fill="url(#paint0_linear_196_2281)"/>
<defs>
<linearGradient id="paint0_linear_196_2281" x1="36.5" y1="6.75" x2="36.5" y2="65.25" gradientUnits="userSpaceOnUse">
<stop stop-color="#5D1799"/>
<stop offset="1" stop-color="#DA77EE"/>
</linearGradient>
</defs>
</svg>
