<svg width="40" height="40" viewBox="0 0 40 40" fill="none" xmlns="http://www.w3.org/2000/svg">
<g clip-path="url(#clip0_164_309)">
<path d="M39.2032 10.3082C38.977 9.45723 38.5314 8.68057 37.9107 8.05596C37.2901 7.43135 36.5163 6.9807 35.6668 6.74911C32.5396 5.9082 20.0396 5.9082 20.0396 5.9082C20.0396 5.9082 7.53955 5.9082 4.41228 6.74911C3.56277 6.9807 2.78898 7.43135 2.16836 8.05596C1.54774 8.68057 1.10206 9.45723 0.875915 10.3082C0.0395509 13.4491 0.0395508 19.9991 0.0395508 19.9991C0.0395508 19.9991 0.0395509 26.5491 0.875915 29.69C1.10206 30.541 1.54774 31.3177 2.16836 31.9423C2.78898 32.5669 3.56277 33.0175 4.41228 33.2491C7.53955 34.09 20.0396 34.09 20.0396 34.09C20.0396 34.09 32.5396 34.09 35.6668 33.2491C36.5163 33.0175 37.2901 32.5669 37.9107 31.9423C38.5314 31.3177 38.977 30.541 39.2032 29.69C40.0396 26.5491 40.0396 19.9991 40.0396 19.9991C40.0396 19.9991 40.0396 13.4491 39.2032 10.3082Z" fill="#FF0302"/>
<path d="M15.9487 25.9482V14.0527L26.4033 20.0005L15.9487 25.9482Z" fill="#FEFEFE"/>
</g>
<defs>
<clipPath id="clip0_164_309">
<rect width="40" height="40" fill="white"/>
</clipPath>
</defs>
</svg>
