<svg width="73" height="72" viewBox="0 0 73 72" fill="none" xmlns="http://www.w3.org/2000/svg">
<path fill-rule="evenodd" clip-rule="evenodd" d="M10.5 9C8.29086 9 6.5 10.7909 6.5 13V20.25H15.5V13C15.5 10.7909 13.7091 9 11.5 9H10.5ZM15.5 21.75H6.5V55.6667C6.5 56.5321 6.78071 57.3743 7.3 58.0667L11 63L14.7 58.0667C15.2193 57.3743 15.5 56.5322 15.5 55.6667V21.75ZM62.5 9H28.5C26.2909 9 24.5 10.7909 24.5 13V59C24.5 61.2091 26.2909 63 28.5 63H41.5C42.0523 63 42.5 62.5523 42.5 62V46C42.5 45.4477 42.9477 45 43.5 45H65.5C66.0523 45 66.5 44.5523 66.5 44V13C66.5 10.7909 64.7091 9 62.5 9ZM35.75 21C35.75 20.5858 36.0858 20.25 36.5 20.25H54.5C54.9142 20.25 55.25 20.5858 55.25 21C55.25 21.4142 54.9142 21.75 54.5 21.75H36.5C36.0858 21.75 35.75 21.4142 35.75 21ZM36.5 32.25C36.0858 32.25 35.75 32.5858 35.75 33C35.75 33.4142 36.0858 33.75 36.5 33.75H54.5C54.9142 33.75 55.25 33.4142 55.25 33C55.25 32.5858 54.9142 32.25 54.5 32.25H36.5ZM68.1934 52.4817C69.0117 51.5465 68.9169 50.125 67.9817 49.3067C67.0465 48.4884 65.6251 48.5832 64.8068 49.5184L56.1971 59.3581C55.9328 59.6601 55.4775 59.7006 55.1641 59.4498L49.9056 55.2431C48.9353 54.4668 47.5194 54.6241 46.7431 55.5945C45.9669 56.5648 46.1242 57.9807 47.0945 58.757L52.353 62.9638C54.5468 64.7188 57.7336 64.4357 59.5837 62.3214L68.1934 52.4817Z" fill="url(#paint0_linear_30_5329)"/>
<defs>
<linearGradient id="paint0_linear_30_5329" x1="37.6251" y1="9" x2="37.6251" y2="64.1143" gradientUnits="userSpaceOnUse">
<stop stop-color="#5D1799"/>
<stop offset="1" stop-color="#DA77EE"/>
</linearGradient>
</defs>
</svg>
