<svg width="73" height="72" viewBox="0 0 73 72" fill="none" xmlns="http://www.w3.org/2000/svg">
<path fill-rule="evenodd" clip-rule="evenodd" d="M35.75 6H10.5C8.29086 6 6.5 7.79086 6.5 10V35.25H35.75V6ZM6.5 36.75V62C6.5 64.2091 8.29086 66 10.5 66H35.75V36.75H6.5ZM37.25 66H62.5C64.7091 66 66.5 64.2091 66.5 62V36.75H37.25V66ZM66.5 35.25V10C66.5 7.79086 64.7091 6 62.5 6H37.25V35.25H66.5ZM58.25 46.5C58.25 46.9142 57.9142 47.25 57.5 47.25H47C46.5858 47.25 46.25 46.9142 46.25 46.5C46.25 46.0858 46.5858 45.75 47 45.75H57.5C57.9142 45.75 58.25 46.0858 58.25 46.5ZM57.5 56.25C57.9142 56.25 58.25 55.9142 58.25 55.5C58.25 55.0858 57.9142 54.75 57.5 54.75H47C46.5858 54.75 46.25 55.0858 46.25 55.5C46.25 55.9142 46.5858 56.25 47 56.25H57.5Z" fill="url(#paint0_linear_30_5332)"/>
<defs>
<linearGradient id="paint0_linear_30_5332" x1="36.5" y1="6" x2="36.5" y2="66" gradientUnits="userSpaceOnUse">
<stop stop-color="#5D1799"/>
<stop offset="1" stop-color="#DA77EE"/>
</linearGradient>
</defs>
</svg>
