<svg width="24" height="24" viewBox="0 0 24 24" fill="none" xmlns="http://www.w3.org/2000/svg">
<g clip-path="url(#clip0_30_4919)">
<path d="M7.2751 2.55078C5.9162 2.55078 4.8001 3.66688 4.8001 5.02578V7.05078H3.6751C2.81337 7.05078 2.1001 7.76405 2.1001 8.62578V10.8758C2.1001 11.7375 2.81337 12.4508 3.6751 12.4508H4.8001V14.4758C4.8001 15.8347 5.9162 16.9508 7.2751 16.9508H16.7251C18.084 16.9508 19.2001 15.8347 19.2001 14.4758V12.4508H20.5501V17.1758C20.5501 18.3024 19.6517 19.2008 18.5251 19.2008H14.5472C14.2866 18.6514 13.7331 18.3011 13.1251 18.3008C12.2552 18.3008 11.5501 19.0059 11.5501 19.8758C11.5501 20.7456 12.2552 21.4508 13.1251 21.4508C13.7328 21.4501 14.2859 21.0998 14.5463 20.5508H18.5251C20.3811 20.5508 21.9001 19.0318 21.9001 17.1758V11.7758V10.9883V8.62578C21.9001 7.76405 21.1868 7.05078 20.3251 7.05078H19.2001V5.02578C19.2001 3.66688 18.084 2.55078 16.7251 2.55078H7.2751ZM7.2751 3.90078H16.7251C17.3543 3.90078 17.8501 4.39658 17.8501 5.02578V7.72578V11.7758V14.4758C17.8501 15.105 17.3543 15.6008 16.7251 15.6008H7.2751C6.6459 15.6008 6.1501 15.105 6.1501 14.4758V11.7758V7.72578V5.02578C6.1501 4.39658 6.6459 3.90078 7.2751 3.90078ZM8.8501 7.50078C8.35304 7.50078 7.9501 7.90372 7.9501 8.40078C7.9501 8.89784 8.35304 9.30078 8.8501 9.30078C9.34715 9.30078 9.7501 8.89784 9.7501 8.40078C9.7501 7.90372 9.34715 7.50078 8.8501 7.50078ZM15.1501 7.50078C14.653 7.50078 14.2501 7.90372 14.2501 8.40078C14.2501 8.89784 14.653 9.30078 15.1501 9.30078C15.6472 9.30078 16.0501 8.89784 16.0501 8.40078C16.0501 7.90372 15.6472 7.50078 15.1501 7.50078ZM3.6751 8.40078H4.8001V11.1008H3.6751C3.54233 11.1008 3.4501 11.0086 3.4501 10.8758V8.62578C3.4501 8.49301 3.54233 8.40078 3.6751 8.40078ZM19.2001 8.40078H20.3251C20.4579 8.40078 20.5501 8.49301 20.5501 8.62578V10.9883V11.1008H19.2001V8.40078ZM14.9189 11.5411C14.7407 11.5453 14.5713 11.6199 14.4479 11.7485C14.4479 11.7485 14.3296 11.879 13.9346 12.0649C13.5395 12.2509 12.9126 12.4508 12.0001 12.4508C11.0876 12.4508 10.4607 12.2509 10.0656 12.0649C9.67055 11.879 9.55234 11.7485 9.55234 11.7485C9.42523 11.6176 9.25053 11.5438 9.06807 11.5437C8.79328 11.5438 8.54595 11.7104 8.44266 11.9651C8.33938 12.2197 8.40075 12.5116 8.59785 12.703C8.59785 12.703 8.92965 13.0225 9.49082 13.2866C10.052 13.5507 10.8876 13.8008 12.0001 13.8008C13.1126 13.8008 13.9482 13.5507 14.5094 13.2866C15.0705 13.0225 15.4023 12.703 15.4023 12.703C15.6032 12.5102 15.6651 12.2138 15.5582 11.9567C15.4512 11.6996 15.1973 11.5345 14.9189 11.5411Z" fill="black"/>
</g>
<defs>
<clipPath id="clip0_30_4919">
<rect width="24" height="24" fill="white"/>
</clipPath>
</defs>
</svg>
