<svg width="16" height="16" viewBox="0 0 16 16" fill="none" xmlns="http://www.w3.org/2000/svg">
<g clip-path="url(#clip0_30_5132)">
<path d="M8.00016 8.00065H7.25016C7.25016 8.32347 7.45674 8.61008 7.76299 8.71216L8.00016 8.00065ZM8.75016 4.66732C8.75016 4.2531 8.41438 3.91732 8.00016 3.91732C7.58595 3.91732 7.25016 4.2531 7.25016 4.66732H8.75016ZM9.76299 9.37883C10.1559 9.50982 10.5807 9.29745 10.7117 8.90449C10.8427 8.51153 10.6303 8.08679 10.2373 7.95581L9.76299 9.37883ZM8.75016 8.00065V4.66732H7.25016V8.00065H8.75016ZM7.76299 8.71216L9.76299 9.37883L10.2373 7.95581L8.23733 7.28914L7.76299 8.71216ZM13.9168 8.00065C13.9168 11.2683 11.2678 13.9173 8.00016 13.9173V15.4173C12.0963 15.4173 15.4168 12.0968 15.4168 8.00065H13.9168ZM8.00016 13.9173C4.73248 13.9173 2.0835 11.2683 2.0835 8.00065H0.583496C0.583496 12.0968 3.90405 15.4173 8.00016 15.4173V13.9173ZM2.0835 8.00065C2.0835 4.73297 4.73248 2.08398 8.00016 2.08398V0.583984C3.90405 0.583984 0.583496 3.90454 0.583496 8.00065H2.0835ZM8.00016 2.08398C11.2678 2.08398 13.9168 4.73297 13.9168 8.00065H15.4168C15.4168 3.90454 12.0963 0.583984 8.00016 0.583984V2.08398Z" fill="#616161"/>
<path d="M8.00016 8.00065H7.25016C7.25016 8.32347 7.45674 8.61008 7.76299 8.71216L8.00016 8.00065ZM8.75016 4.66732C8.75016 4.2531 8.41438 3.91732 8.00016 3.91732C7.58595 3.91732 7.25016 4.2531 7.25016 4.66732H8.75016ZM9.76299 9.37883C10.1559 9.50982 10.5807 9.29745 10.7117 8.90449C10.8427 8.51153 10.6303 8.08679 10.2373 7.95581L9.76299 9.37883ZM8.75016 8.00065V4.66732H7.25016V8.00065H8.75016ZM7.76299 8.71216L9.76299 9.37883L10.2373 7.95581L8.23733 7.28914L7.76299 8.71216ZM13.9168 8.00065C13.9168 11.2683 11.2678 13.9173 8.00016 13.9173V15.4173C12.0963 15.4173 15.4168 12.0968 15.4168 8.00065H13.9168ZM8.00016 13.9173C4.73248 13.9173 2.0835 11.2683 2.0835 8.00065H0.583496C0.583496 12.0968 3.90405 15.4173 8.00016 15.4173V13.9173ZM2.0835 8.00065C2.0835 4.73297 4.73248 2.08398 8.00016 2.08398V0.583984C3.90405 0.583984 0.583496 3.90454 0.583496 8.00065H2.0835ZM8.00016 2.08398C11.2678 2.08398 13.9168 4.73297 13.9168 8.00065H15.4168C15.4168 3.90454 12.0963 0.583984 8.00016 0.583984V2.08398Z" fill="black" fill-opacity="0.2"/>
</g>
<defs>
<clipPath id="clip0_30_5132">
<rect width="16" height="16" fill="white"/>
</clipPath>
</defs>
</svg>
