<svg width="24" height="24" viewBox="0 0 24 24" fill="none" xmlns="http://www.w3.org/2000/svg">
<g clip-path="url(#clip0_30_4910)">
<path d="M0 14.6895C0.35125 13.9363 0.706875 13.1857 1.05375 12.4307C1.99375 10.387 2.93062 8.34134 3.86812 6.29634C3.89687 6.23322 3.92312 6.16822 3.96375 6.0726C3.65437 5.91572 3.34687 5.75884 3.02 5.59322C3.13937 5.35322 3.25188 5.12635 3.37313 4.88197C3.69 5.03822 3.98688 5.18509 4.28188 5.33072C4.71875 4.67822 4.91812 4.67072 5.27375 5.29135C5.30625 5.28572 5.34625 5.28697 5.37875 5.27259C6.15562 4.92197 6.97687 4.82634 7.81875 4.83259C8.7075 4.83884 9.59688 4.83384 10.4856 4.83384C10.5706 4.83384 10.6556 4.83384 10.76 4.83384V4.03947H9.99687V3.24822H10.6694C10.575 2.86884 10.4881 2.52634 10.4044 2.18259C10.1388 1.09384 10.8325 0.101345 11.8956 0.052595C12.9594 0.00322 13.8706 0.96822 13.5575 2.17884C13.47 2.51759 13.3869 2.85759 13.2937 3.22884H13.9625V4.02822H13.1962V4.83509C13.29 4.83509 13.38 4.83509 13.47 4.83509C14.585 4.8426 15.7 4.84509 16.8144 4.85947C17.3813 4.86697 17.9237 5.00572 18.4475 5.2176C18.5188 5.24635 18.5919 5.27197 18.6825 5.30572C18.8038 5.10259 18.8719 4.83759 19.1763 4.84509C19.4825 4.85322 19.5381 5.12197 19.665 5.33759C19.97 5.18822 20.2675 5.04197 20.5869 4.8851C20.7063 5.12509 20.82 5.35197 20.94 5.59322C20.6206 5.75509 20.3169 5.90822 19.9969 6.07072C20.0363 6.16197 20.0675 6.2401 20.1025 6.31572C21.3219 8.97635 22.535 11.6407 23.7687 14.2951C23.96 14.7063 23.9781 15.0926 23.8694 15.5145C23.57 16.6788 22.5406 17.5651 21.3412 17.5926C19.8919 17.6263 18.44 17.6313 16.9906 17.592C15.5775 17.5538 14.4275 16.3526 14.3819 14.9351C14.3769 14.7876 14.4275 14.627 14.49 14.4895C15.7312 11.7701 16.9788 9.05322 18.2244 6.33634C18.2663 6.24509 18.3056 6.15322 18.3756 5.99572C17.92 5.88322 17.4887 5.69697 17.0519 5.68322C15.7756 5.64135 14.4975 5.66822 13.1925 5.66822C13.1888 5.73447 13.18 5.81635 13.18 5.89822C13.1794 10.6076 13.1781 15.317 13.1856 20.0263C13.1856 20.1488 13.2475 20.2995 13.3319 20.3895C13.6775 20.7595 14.0369 21.1176 14.4062 21.4651C14.4906 21.5445 14.6313 21.5995 14.7481 21.6045C15.1606 21.6213 15.575 21.602 15.9875 21.6145C17.0375 21.647 17.8031 22.3507 17.9519 23.3901C17.9906 23.6607 17.9325 23.8657 17.6881 24.0026H6.27063C6.02625 23.8657 5.96812 23.6613 6.00688 23.3907C6.15562 22.3513 6.92125 21.6476 7.97062 21.6151C8.38375 21.6026 8.7975 21.622 9.21 21.6051C9.3275 21.6001 9.4675 21.5457 9.55188 21.4663C9.92062 21.1188 10.28 20.7607 10.6256 20.3907C10.71 20.3007 10.7719 20.1501 10.7719 20.0276C10.7794 15.3188 10.7781 10.6095 10.7775 5.90072C10.7775 5.81885 10.7694 5.73697 10.7644 5.65322C10.7094 5.64572 10.6794 5.63759 10.6488 5.63759C9.58063 5.63697 8.51188 5.63072 7.44375 5.63947C6.80813 5.64447 6.1925 5.7576 5.60625 6.0501C5.65188 6.15322 5.69187 6.2451 5.73313 6.33572C6.97688 9.05385 8.2225 11.7707 9.4625 14.4907C9.5225 14.622 9.5775 14.7713 9.57625 14.912C9.5675 16.2913 8.39313 17.5513 7.01438 17.5907C5.55 17.632 4.0825 17.6257 2.6175 17.5938C1.67188 17.5732 0.928125 17.1045 0.440625 16.302C0.234375 15.9551 0.14375 15.5395 0 15.157C0 15.0007 0 14.8451 0 14.6888V14.6895ZM1.04375 14.3963H8.5425C8.5175 14.3332 8.50313 14.2895 8.48375 14.2482C7.31313 11.6945 6.14312 9.14009 4.96812 6.58822C4.93625 6.51947 4.84375 6.43134 4.785 6.43572C4.72187 6.44009 4.64125 6.53072 4.60813 6.60197C3.44625 9.12572 2.28875 11.6513 1.13188 14.177C1.10063 14.2457 1.075 14.317 1.04375 14.3963ZM22.925 14.4007C22.8819 14.302 22.8494 14.2245 22.8144 14.1482C21.6669 11.6432 20.52 9.13822 19.3675 6.63572C19.3294 6.55322 19.2375 6.49509 19.1706 6.42572C19.1019 6.49572 19.0069 6.55384 18.9681 6.63759C17.8119 9.14697 16.6612 11.6588 15.5106 14.1707C15.4788 14.2401 15.4531 14.3113 15.4169 14.4007H22.925ZM11.5969 5.64322V20.0107C11.8069 20.0107 12.0006 20.012 12.1938 20.0101C12.2463 20.0101 12.2987 20.0007 12.3581 19.9951V5.64322H11.5962H11.5969ZM0.86125 15.2238C1.02 16.0726 1.76625 16.7726 2.5975 16.7888C4.02375 16.8163 5.45125 16.812 6.87813 16.7926C7.155 16.7888 7.45 16.697 7.70188 16.5751C8.25625 16.3063 8.59437 15.8482 8.73312 15.2245H0.86125V15.2238ZM15.2456 15.2232C15.3431 16.0038 16.1269 16.7676 16.9281 16.7845C18.4169 16.8151 19.9069 16.8145 21.395 16.7857C22.2094 16.7701 22.9813 16.0213 23.0919 15.2238H15.245L15.2456 15.2232ZM17.0788 23.1951C16.8981 22.6795 16.4788 22.407 15.8856 22.4063C13.2825 22.4051 10.6794 22.4063 8.07625 22.4063C8.00625 22.4063 7.93563 22.4063 7.86625 22.412C7.40688 22.452 6.98187 22.7932 6.89687 23.1951H17.0788ZM11.9762 3.23509C12.0544 3.23509 12.1331 3.22572 12.2094 3.23697C12.4069 3.26572 12.4975 3.19072 12.5369 2.98947C12.6069 2.63135 12.7106 2.28072 12.7931 1.92509C12.8819 1.54384 12.7644 1.21822 12.475 1.01947C12.1731 0.81197 11.7925 0.810095 11.4906 1.01509C11.1994 1.21259 11.0781 1.54072 11.1644 1.91822C11.2288 2.19822 11.3031 2.47635 11.3713 2.7551C11.45 3.07509 11.6517 3.23509 11.9762 3.23509ZM13.4038 21.5951C13.1281 21.322 12.9244 20.9563 12.6394 20.8751C12.2281 20.7576 11.7325 20.7576 11.3206 20.8751C11.0356 20.957 10.8313 21.3213 10.555 21.5951H13.4038ZM12.3656 4.05197H11.5931V4.81447H12.3656V4.05197Z" fill="black"/>
<path d="M11.5969 5.64258H12.3588V19.9945C12.2988 20.0001 12.2469 20.0088 12.1944 20.0095C12.0013 20.0113 11.8075 20.0101 11.5975 20.0101V5.64258H11.5969Z" fill="white"/>
<path d="M11.9763 3.23579C11.6513 3.23579 11.4497 3.07579 11.3713 2.75579C11.3026 2.47642 11.2288 2.19892 11.1644 1.91892C11.0776 1.54142 11.1994 1.21267 11.4907 1.01579C11.7932 0.81079 12.1738 0.812665 12.4751 1.02017C12.7644 1.21892 12.8826 1.54454 12.7932 1.92579C12.7101 2.28142 12.6063 2.63267 12.5369 2.99017C12.4976 3.19204 12.4069 3.26642 12.2094 3.23767C12.1332 3.22642 12.0538 3.23579 11.9763 3.23579Z" fill="white"/>
<path d="M13.4037 21.5955H10.5549C10.8312 21.3217 11.0349 20.9573 11.3206 20.8755C11.7324 20.758 12.2274 20.7573 12.6393 20.8755C12.9243 20.9573 13.1287 21.3223 13.4037 21.5955Z" fill="white"/>
<path d="M12.3655 4.05273V4.81523H11.593V4.05273H12.3655Z" fill="white"/>
</g>
<defs>
<clipPath id="clip0_30_4910">
<rect width="24" height="24" fill="white"/>
</clipPath>
</defs>
</svg>
