<svg width="117" height="40" viewBox="0 0 117 40" fill="none" xmlns="http://www.w3.org/2000/svg">
<g clip-path="url(#clip0_164_318)">
<path d="M0 38.9338C0.0973155 38.794 0.187435 38.6488 0.292975 38.5155C2.78035 35.3868 5.34961 32.3234 7.95212 29.2869C12.0102 24.5511 16.164 19.8974 20.3831 15.2997C20.4596 15.2165 20.5267 15.1232 20.612 15.0498C20.9307 14.7753 21.0219 14.4274 21.014 14.023C20.9993 13.2605 21.0102 12.4977 21.0102 11.7349C21.0102 11.1068 21.0082 10.4787 21.0123 9.85055C21.0133 9.69563 21.0345 9.54038 21.0479 9.36929C21.1349 9.32753 21.2134 9.25748 21.2922 9.25681C22.1568 9.24906 23.0213 9.25175 23.9252 9.25175C24.1014 9.86234 23.9081 10.5157 24.0469 11.1684C24.3097 11.1202 24.4149 10.9363 24.5461 10.7976C25.5563 9.72965 26.5572 8.65363 27.5711 7.58906C29.8488 5.19858 32.1316 2.81314 34.4141 0.42704C34.5522 0.282561 34.705 0.151889 34.8671 0C35.4009 0.438491 35.806 0.953095 36.2593 1.42021C36.7318 1.9072 37.1886 2.40867 37.6525 2.90374C38.1011 3.38231 38.5496 3.8602 38.9985 4.33843C39.4471 4.81666 39.897 5.29389 40.3445 5.77313C40.792 6.25271 41.2371 6.73397 41.6826 7.21489C42.1434 7.71266 42.603 8.21143 43.0642 8.70886C43.5093 9.18844 43.9558 9.66701 44.3831 10.126C44.492 10.1361 44.564 10.1604 44.6267 10.1462C49.4658 9.05204 54.3045 7.9548 59.1421 6.85555C59.2288 6.83601 59.308 6.78482 59.3782 6.75417C59.5533 6.52045 59.4975 6.26584 59.4989 6.02538C59.505 4.88133 59.5002 3.73728 59.503 2.59323C59.5037 2.35007 59.5201 2.10691 59.53 1.85062C59.6952 1.80044 59.8216 1.72972 59.9488 1.72803C61.6593 1.70311 63.3699 1.68795 65.1202 1.6701C65.1514 1.8486 65.198 1.9951 65.199 2.14194C65.2062 2.99433 65.2011 3.84673 65.2041 4.69913C65.2048 4.92006 65.2199 5.14099 65.2302 5.40839C65.4169 5.39155 65.5698 5.39458 65.7144 5.36225C69.0467 4.61156 72.3784 3.85717 75.7101 3.10311C75.8211 3.07786 75.9325 3.02229 76.0411 3.02801C76.1686 3.03475 76.307 3.07045 76.415 3.13511C76.5284 3.20314 76.6123 3.31899 76.7079 3.41531C80.6126 7.34893 84.5175 11.2829 88.4211 15.2175C88.5623 15.3596 88.6921 15.5122 88.8607 15.6968C88.6808 15.8645 88.5236 16.011 88.3354 16.1861C86.225 14.0452 84.1485 11.9362 82.0689 9.83035C80.0043 7.7396 77.9494 5.63942 75.8705 3.54262C75.7591 3.62008 75.6738 3.65847 75.6173 3.72178C69.4723 10.6252 63.3295 17.5302 57.1856 24.4366C57.4436 24.9135 57.8198 25.2472 58.1306 25.6302C58.4294 25.9983 58.746 26.3522 59.0537 26.7136C59.3758 27.0921 59.6973 27.4714 60.018 27.8509C60.3243 28.2133 60.6296 28.576 60.9349 28.9394C61.2546 29.32 61.5747 29.7002 61.8927 30.0818C62.211 30.4633 62.5273 30.8466 62.8442 31.2292C63.1468 31.5942 63.4504 31.959 63.752 32.3251C64.0675 32.7087 64.3814 33.0939 64.6956 33.4789C65.0099 33.8638 65.3231 34.2494 65.6359 34.6354C65.9344 35.0042 66.2321 35.3729 66.5282 35.7434C66.8386 36.1314 67.1477 36.52 67.4558 36.9097C67.7498 37.2815 68.0451 37.6526 68.3344 38.0281C68.6304 38.4127 68.9443 38.7856 69.1379 39.253C68.9696 39.1163 68.7976 38.9843 68.6342 38.8425C65.3676 36.0044 62.1853 33.0764 59.0387 30.1111C50.9646 22.5015 43.1505 14.6399 35.5058 6.61475C35.3057 6.40459 35.1008 6.19882 34.9099 6.00315C34.5977 6.08566 34.4665 6.31299 34.2965 6.48509C32.197 8.6085 30.1144 10.7484 28.0043 12.8614C21.0966 19.7779 14.0645 26.5691 6.79118 33.1158C4.72117 34.9789 2.6121 36.8002 0.51913 38.6387C0.375213 38.7654 0.216904 38.8758 0.0651055 38.9937C0.0435179 38.9735 0.0215876 38.9536 0 38.9334L0 38.9338Z" fill="url(#paint0_linear_164_318)"/>
<path d="M117 39.4244C116.795 39.6399 116.625 39.8177 116.452 39.9996C116.151 39.8925 116.019 39.6733 115.856 39.5012C112.949 36.4314 110.045 33.3586 107.141 30.2855C103.197 26.1117 99.2545 21.9366 95.3087 17.7646C95.1412 17.5874 95.0075 17.3651 94.6995 17.2695C91.1677 20.9943 87.6229 24.7336 84.0773 28.4722C80.55 32.192 77.0247 35.9134 73.4974 39.6281C73.3791 39.5628 73.3089 39.5429 73.2664 39.4978C70.1475 36.1936 67.0307 32.8878 63.8857 29.5519C63.9981 29.4243 64.0865 29.3004 64.1979 29.2007C67.961 25.8345 71.7272 22.4721 75.4896 19.1049C75.7147 18.9036 75.9457 18.7779 76.2609 18.7311C78.2436 18.4358 80.2221 18.1158 82.2016 17.8019C84.0465 17.5096 85.891 17.2136 87.7363 16.9219C89.2666 16.6801 90.7976 16.441 92.3286 16.2032C93.0934 16.0843 93.8589 15.9709 94.5967 15.8594C94.8927 15.9877 95.0596 16.2079 95.2416 16.4033C95.8419 17.0472 96.4207 17.711 97.0265 18.3499C103.513 25.192 110.003 32.031 116.491 38.8711C116.647 39.0347 116.797 39.2024 117.001 39.4237L117 39.4244Z" fill="url(#paint1_linear_164_318)"/>
<path d="M6.16426 39.1058C15.1783 28.4378 24.7227 18.2454 34.42 8.16016C34.6445 8.23863 34.7579 8.40938 34.8922 8.54746C40.8991 14.7237 46.848 20.9535 52.6766 27.2934C55.9963 30.9041 59.2804 34.5454 62.4987 38.2436C62.6991 38.474 62.9064 38.7003 63.1692 39.0674C62.1827 38.4278 55.1746 31.834 48.5603 25.297C43.8476 20.6393 39.1782 15.9395 34.469 11.2373C34.2418 11.3555 34.0825 11.5772 33.8971 11.7654C30.2814 15.4411 26.6869 19.1369 23.0495 22.792C17.7523 28.1145 12.3722 33.3552 6.86329 38.4672C6.63199 38.6821 6.39693 38.8929 6.16357 39.1054L6.16426 39.1058Z" fill="url(#paint2_linear_164_318)"/>
<path d="M112.552 39.242C111.764 38.8065 107.508 35.0127 103.398 31.0191C100.462 28.1665 97.5689 25.2726 94.633 22.3739C94.4223 22.4419 94.3006 22.6406 94.1468 22.7949C91.669 25.2766 89.2128 27.7796 86.7121 30.2384C83.7912 33.1105 80.7868 35.8981 77.6902 38.5879C77.4174 38.825 77.1289 39.0446 76.8458 39.2703C76.8404 39.2746 76.8147 39.2544 76.7982 39.246C76.801 39.2056 76.7883 39.1534 76.8092 39.1268C80.7508 34.0912 85.0012 29.3123 89.3375 24.6054C91.0659 22.7295 92.8224 20.8792 94.6231 19.0098C96.3473 20.7657 98.0113 22.5194 99.6564 24.2892C104.122 29.0934 108.497 33.9733 112.549 39.1241C112.569 39.1494 112.552 39.2036 112.552 39.242Z" fill="url(#paint3_linear_164_318)"/>
<path d="M60.0412 24.4101C61.4609 21.8421 74.5395 6.28544 76.3203 4.9043C77.3195 5.65936 85.0571 14.4272 85.7034 15.5365C85.6876 15.5483 85.6715 15.5702 85.6564 15.5695C85.6359 15.5685 85.615 15.552 85.5965 15.5396C85.5591 15.514 85.5221 15.488 85.4868 15.4597C85.4337 15.4173 85.382 15.3732 85.3306 15.3287C85.2449 15.2546 85.1592 15.1805 85.075 15.1051C84.501 14.5922 83.9233 14.083 83.3545 13.5647C82.6684 12.9396 81.9855 12.3112 81.3098 11.6753C80.4696 10.8842 79.6349 10.0874 78.8043 9.28617C78.0717 8.57927 77.348 7.86361 76.6201 7.15165C76.5879 7.11999 76.555 7.08901 76.5208 7.05937C76.504 7.04455 76.4845 7.03209 76.4649 7.02064C76.4454 7.00919 76.4242 7.00077 76.3985 6.98864C76.1774 7.03377 76.0873 7.2318 75.9598 7.37999C72.8804 10.9596 69.7423 14.4888 66.4771 17.9055C64.5092 19.9645 62.483 21.9697 60.4815 23.9978C60.3404 24.141 60.1879 24.273 60.0405 24.4101H60.0412Z" fill="url(#paint4_linear_164_318)"/>
<path d="M38.6628 27.9171C37.8291 28.0542 35.5566 27.9875 34.9107 27.808C34.7997 27.2321 34.8603 26.6309 34.86 26.0348C34.86 25.4582 34.8038 24.8776 34.9066 24.2832C35.0231 24.2492 35.1269 24.1997 35.2345 24.1903C36.0548 24.1179 38.2006 24.1451 38.6351 24.2287C38.6553 24.2846 38.6957 24.3455 38.6961 24.4068C38.7046 25.4343 38.7101 26.4619 38.7108 27.4894C38.7108 27.6207 38.682 27.7521 38.6628 27.9168V27.9171Z" fill="url(#paint5_linear_164_318)"/>
<path d="M34.3834 27.9128C33.5888 28.058 31.2847 27.9886 30.6673 27.801C30.5357 27.4255 30.6124 27.02 30.5998 26.6233C30.5874 26.2431 30.5878 25.8615 30.5998 25.4813C30.6124 25.0839 30.5381 24.6794 30.6683 24.2739C30.7629 24.2439 30.8455 24.2018 30.9318 24.1931C31.4828 24.1368 33.9082 24.152 34.3752 24.2143C34.4753 24.5019 34.4191 24.8155 34.4283 25.1213C34.4379 25.4345 34.4304 25.7483 34.4304 26.0619C34.4304 26.3754 34.4345 26.689 34.4293 27.0025C34.4242 27.3103 34.4612 27.6225 34.3834 27.9128Z" fill="url(#paint6_linear_164_318)"/>
<path d="M38.6323 32.0583C38.523 32.0792 38.4363 32.1112 38.3503 32.1099C37.3045 32.092 36.2591 32.0705 35.2133 32.0452C35.1266 32.0432 35.0409 32.0075 34.9247 31.9805C34.7894 31.3811 34.8617 30.7796 34.8607 30.1848C34.8596 29.6096 34.7959 29.029 34.9158 28.4305C35.5282 28.2722 36.1422 28.3507 36.7474 28.3318C37.358 28.313 37.9693 28.3278 38.6029 28.3278C38.6402 28.4255 38.6964 28.5043 38.6967 28.5831C38.7005 29.6776 38.6971 30.7725 38.693 31.867C38.693 31.9091 38.6673 31.9509 38.6323 32.0583Z" fill="url(#paint7_linear_164_318)"/>
<path d="M30.6628 28.4279C31.2933 28.3192 33.6964 28.2872 34.3773 28.3744C34.4832 28.7513 34.4174 29.1534 34.428 29.5477C34.4393 29.9731 34.4359 30.3991 34.429 30.8245C34.4225 31.2229 34.4647 31.6247 34.3869 32.0551C33.9675 32.1723 33.559 32.1006 33.1578 32.1029C32.7476 32.1056 32.3371 32.0958 31.9273 32.0773C31.5216 32.0591 31.1097 32.1022 30.6817 31.9884C30.52 31.3893 30.6063 30.7851 30.6039 30.19C30.6015 29.6134 30.535 29.0308 30.6632 28.4276L30.6628 28.4279Z" fill="url(#paint8_linear_164_318)"/>
<path d="M97.9342 32.0628C97.0429 32.0645 96.141 32.049 95.2278 32.0203C95.0534 31.5438 95.147 31.0962 95.1319 30.6594C95.1172 30.2384 95.1343 29.8164 95.1374 29.4093C95.4516 29.1715 95.783 29.2587 96.0889 29.2314C96.4049 29.2031 96.7239 29.1961 97.0412 29.1994C97.3523 29.2028 97.672 29.1152 97.9691 29.2459C98.1 29.8841 98.0829 31.5845 97.9338 32.0628H97.9342Z" fill="url(#paint9_linear_164_318)"/>
<path d="M97.964 32.3684C98.0891 32.9972 98.0819 34.6417 97.9623 35.13C97.4614 35.2344 96.0325 35.2145 95.2306 35.0883C95.0288 34.6764 95.1546 34.2251 95.1323 33.7896C95.1107 33.368 95.1275 32.9443 95.1275 32.5186C95.6154 32.2667 96.101 32.3879 96.5646 32.362C97.0337 32.3357 97.5083 32.3122 97.964 32.3687V32.3684Z" fill="url(#paint10_linear_164_318)"/>
<path d="M91.9408 29.3705C92.6371 29.1937 94.1725 29.1465 94.7242 29.2631C94.8209 29.8019 94.8263 31.3713 94.7338 31.9782C94.2267 32.0924 92.7221 32.0823 92.0049 31.9533C91.9792 31.8677 91.923 31.7654 91.9206 31.6616C91.9038 30.9042 91.8757 30.1458 91.9408 29.3705Z" fill="url(#paint11_linear_164_318)"/>
<path d="M92.0183 35.0972C91.8699 34.4879 91.8654 33.0879 91.9998 32.4801C92.4185 32.2837 92.8814 32.3854 93.3269 32.3618C93.7795 32.3379 94.2346 32.3564 94.7099 32.3564C94.8747 32.8333 94.7781 33.3045 94.7928 33.7652C94.8072 34.2094 94.7873 34.6547 94.7822 35.1356C94.3028 35.274 93.8491 35.1928 93.404 35.1858C92.952 35.1784 92.4952 35.1999 92.0179 35.0972H92.0183Z" fill="url(#paint12_linear_164_318)"/>
</g>
<defs>
<linearGradient id="paint0_linear_164_318" x1="44.4304" y1="0" x2="44.4304" y2="39.253" gradientUnits="userSpaceOnUse">
<stop stop-color="#5D1799"/>
<stop offset="1" stop-color="#DA77EE"/>
</linearGradient>
<linearGradient id="paint1_linear_164_318" x1="90.4433" y1="15.8594" x2="90.4433" y2="39.9996" gradientUnits="userSpaceOnUse">
<stop stop-color="#5D1799"/>
<stop offset="1" stop-color="#DA77EE"/>
</linearGradient>
<linearGradient id="paint2_linear_164_318" x1="34.6664" y1="8.16016" x2="34.6664" y2="39.1058" gradientUnits="userSpaceOnUse">
<stop stop-color="#5D1799"/>
<stop offset="1" stop-color="#DA77EE"/>
</linearGradient>
<linearGradient id="paint3_linear_164_318" x1="94.6779" y1="19.0098" x2="94.6779" y2="39.2709" gradientUnits="userSpaceOnUse">
<stop stop-color="#5D1799"/>
<stop offset="1" stop-color="#DA77EE"/>
</linearGradient>
<linearGradient id="paint4_linear_164_318" x1="72.872" y1="4.9043" x2="72.872" y2="24.4101" gradientUnits="userSpaceOnUse">
<stop stop-color="#5D1799"/>
<stop offset="1" stop-color="#DA77EE"/>
</linearGradient>
<linearGradient id="paint5_linear_164_318" x1="36.7773" y1="24.1484" x2="36.7773" y2="27.9902" gradientUnits="userSpaceOnUse">
<stop stop-color="#5D1799"/>
<stop offset="1" stop-color="#DA77EE"/>
</linearGradient>
<linearGradient id="paint6_linear_164_318" x1="32.5123" y1="24.1582" x2="32.5123" y2="27.9907" gradientUnits="userSpaceOnUse">
<stop stop-color="#5D1799"/>
<stop offset="1" stop-color="#DA77EE"/>
</linearGradient>
<linearGradient id="paint7_linear_164_318" x1="36.7703" y1="28.3223" x2="36.7703" y2="32.1099" gradientUnits="userSpaceOnUse">
<stop stop-color="#5D1799"/>
<stop offset="1" stop-color="#DA77EE"/>
</linearGradient>
<linearGradient id="paint8_linear_164_318" x1="32.5108" y1="28.3242" x2="32.5108" y2="32.1225" gradientUnits="userSpaceOnUse">
<stop stop-color="#5D1799"/>
<stop offset="1" stop-color="#DA77EE"/>
</linearGradient>
<linearGradient id="paint9_linear_164_318" x1="96.5887" y1="29.1738" x2="96.5887" y2="32.0629" gradientUnits="userSpaceOnUse">
<stop stop-color="#5D1799"/>
<stop offset="1" stop-color="#DA77EE"/>
</linearGradient>
<linearGradient id="paint10_linear_164_318" x1="96.5844" y1="32.334" x2="96.5844" y2="35.1972" gradientUnits="userSpaceOnUse">
<stop stop-color="#5D1799"/>
<stop offset="1" stop-color="#DA77EE"/>
</linearGradient>
<linearGradient id="paint11_linear_164_318" x1="93.35" y1="29.1992" x2="93.35" y2="32.0574" gradientUnits="userSpaceOnUse">
<stop stop-color="#5D1799"/>
<stop offset="1" stop-color="#DA77EE"/>
</linearGradient>
<linearGradient id="paint12_linear_164_318" x1="93.3553" y1="32.3496" x2="93.3553" y2="35.2158" gradientUnits="userSpaceOnUse">
<stop stop-color="#5D1799"/>
<stop offset="1" stop-color="#DA77EE"/>
</linearGradient>
<clipPath id="clip0_164_318">
<rect width="117" height="40" fill="white"/>
</clipPath>
</defs>
</svg>
