<svg width="73" height="72" viewBox="0 0 73 72" fill="none" xmlns="http://www.w3.org/2000/svg">
<path fill-rule="evenodd" clip-rule="evenodd" d="M36.5 3.75C37.7426 3.75 38.75 4.75736 38.75 6V9C38.75 10.2426 37.7426 11.25 36.5 11.25C35.2574 11.25 34.25 10.2426 34.25 9V6C34.25 4.75736 35.2574 3.75 36.5 3.75ZM54.5 36C54.5 45.9411 46.4411 54 36.5 54C26.5589 54 18.5 45.9411 18.5 36C18.5 26.0589 26.5589 18 36.5 18C46.4411 18 54.5 26.0589 54.5 36ZM38.75 63C38.75 61.7574 37.7426 60.75 36.5 60.75C35.2574 60.75 34.25 61.7574 34.25 63V66C34.25 67.2426 35.2574 68.25 36.5 68.25C37.7426 68.25 38.75 67.2426 38.75 66V63ZM59.3041 13.1955C60.1828 14.0742 60.1828 15.4988 59.3041 16.3775L57.1828 18.4988C56.3041 19.3775 54.8795 19.3775 54.0008 18.4988C53.1221 17.6201 53.1221 16.1955 54.0008 15.3168L56.1221 13.1955C57.0008 12.3168 58.4254 12.3168 59.3041 13.1955ZM18.9989 56.6826C19.8776 55.804 19.8776 54.3793 18.9989 53.5007C18.1203 52.622 16.6956 52.622 15.817 53.5007L13.6956 55.622C12.817 56.5007 12.817 57.9253 13.6956 58.804C14.5743 59.6826 15.9989 59.6826 16.8776 58.804L18.9989 56.6826ZM68.75 36C68.75 37.2426 67.7426 38.25 66.5 38.25H63.5C62.2574 38.25 61.25 37.2426 61.25 36C61.25 34.7574 62.2574 33.75 63.5 33.75H66.5C67.7426 33.75 68.75 34.7574 68.75 36ZM9.5 38.25C10.7426 38.25 11.75 37.2426 11.75 36C11.75 34.7574 10.7426 33.75 9.5 33.75H6.5C5.25736 33.75 4.25 34.7574 4.25 36C4.25 37.2426 5.25736 38.25 6.5 38.25H9.5ZM59.3041 58.8041C58.4255 59.6828 57.0009 59.6828 56.1222 58.8041L54.0009 56.6828C53.1222 55.8041 53.1222 54.3795 54.0009 53.5008C54.8795 52.6221 56.3041 52.6221 57.1828 53.5008L59.3041 55.6221C60.1828 56.5008 60.1828 57.9254 59.3041 58.8041ZM15.817 18.4989C16.6957 19.3776 18.1203 19.3776 18.999 18.4989C19.8777 17.6203 19.8777 16.1956 18.999 15.317L16.8777 13.1956C15.999 12.317 14.5744 12.317 13.6957 13.1956C12.817 14.0743 12.817 15.4989 13.6957 16.3776L15.817 18.4989Z" fill="url(#paint0_linear_30_5335)"/>
<defs>
<linearGradient id="paint0_linear_30_5335" x1="36.5" y1="3.75" x2="36.5" y2="68.25" gradientUnits="userSpaceOnUse">
<stop stop-color="#5D1799"/>
<stop offset="1" stop-color="#DA77EE"/>
</linearGradient>
</defs>
</svg>
