<svg width="20" height="21" viewBox="0 0 20 21" fill="none" xmlns="http://www.w3.org/2000/svg">
<path d="M7.47729 3.37698C8.87055 1.98372 11.1295 1.98371 12.5228 3.37698L17.2884 8.14263C18.6817 9.5359 18.6817 11.7948 17.2884 13.1881L12.5228 17.9537C11.1295 19.347 8.87056 19.347 7.47729 17.9537L2.71164 13.1881C1.31837 11.7948 1.31837 9.5359 2.71163 8.14264L7.47729 3.37698Z" stroke="#757575"/>
<path d="M8.33333 6.9875L9.41074 5.91009C9.73618 5.58466 10.2638 5.58466 10.5893 5.91009L11.6667 6.9875M10 13.9993L10 6.15417M10 13.9993L10 14.8327M10 13.9993C10 12.1584 11.4924 10.666 13.3333 10.666H14.5118M10 13.9993C10 12.1584 8.50762 10.666 6.66667 10.666H5.48816M13.6785 8.99935L14.7559 10.0768C15.0814 10.4022 15.0814 10.9298 14.7559 11.2553L13.6785 12.3327M6.32149 8.99935L5.24408 10.0768C4.91864 10.4022 4.91864 10.9298 5.24408 11.2553L6.32149 12.3327" stroke="#757575" stroke-linecap="round"/>
</svg>
