<svg width="16" height="17" viewBox="0 0 16 17" fill="none" xmlns="http://www.w3.org/2000/svg">
<path fill-rule="evenodd" clip-rule="evenodd" d="M2.97631 10.5603C3.60143 9.93517 4.44928 9.58398 5.33333 9.58398H10.6667C11.5507 9.58398 12.3986 9.93517 13.0237 10.5603C13.6488 11.1854 14 12.0333 14 12.9173V14.2507C14 14.6188 13.7015 14.9173 13.3333 14.9173C12.9651 14.9173 12.6667 14.6188 12.6667 14.2507V12.9173C12.6667 12.3869 12.456 11.8782 12.0809 11.5031C11.7058 11.128 11.1971 10.9173 10.6667 10.9173H5.33333C4.8029 10.9173 4.29419 11.128 3.91912 11.5031C3.54405 11.8782 3.33333 12.3869 3.33333 12.9173V14.2507C3.33333 14.6188 3.03486 14.9173 2.66667 14.9173C2.29848 14.9173 2 14.6188 2 14.2507V12.9173C2 12.0333 2.35119 11.1854 2.97631 10.5603Z" fill="black"/>
<path fill-rule="evenodd" clip-rule="evenodd" d="M7.99996 2.91732C6.89539 2.91732 5.99996 3.81275 5.99996 4.91732C5.99996 6.02189 6.89539 6.91732 7.99996 6.91732C9.10453 6.91732 9.99996 6.02189 9.99996 4.91732C9.99996 3.81275 9.10453 2.91732 7.99996 2.91732ZM4.66663 4.91732C4.66663 3.07637 6.15901 1.58398 7.99996 1.58398C9.84091 1.58398 11.3333 3.07637 11.3333 4.91732C11.3333 6.75827 9.84091 8.25065 7.99996 8.25065C6.15901 8.25065 4.66663 6.75827 4.66663 4.91732Z" fill="black"/>
</svg>
