<svg width="40" height="40" viewBox="0 0 40 40" fill="none" xmlns="http://www.w3.org/2000/svg">
<path d="M12.4998 30.0003V5.68951L11.4907 5.01367C7.19984 6.73617 4.1665 10.927 4.1665 15.8337V24.167C4.1665 30.6103 9.38984 35.8337 15.8332 35.8337H24.1665C28.1015 35.8337 31.569 33.877 33.6807 30.8912V30.0003H12.4998Z" fill="#2962FF"/>
<path d="M24.1665 4.16602H15.8332C14.2957 4.16602 12.8323 4.47102 11.4882 5.01102C8.71067 7.70768 6.6665 12.106 6.6665 15.8327C6.6665 21.4752 7.4465 24.7785 9.75984 28.0052C9.93984 28.256 10.0573 28.5494 10.0732 28.8569C10.109 29.5527 9.96567 30.8277 8.7115 31.9752C8.5765 32.0985 8.66234 32.3244 8.84484 32.3319C9.62984 32.366 11.214 32.3202 12.8423 31.601C13.3065 31.396 13.8348 31.4319 14.2832 31.6702C17.044 33.136 20.2773 33.3327 23.3332 33.3327C27.2298 33.3327 31.1157 32.466 33.6807 30.9027C35.0315 28.9985 35.8332 26.6777 35.8332 24.166V15.8327C35.8332 9.38935 30.6098 4.16602 24.1665 4.16602Z" fill="#EEEEEE"/>
<path d="M30.625 22.5C28.9025 22.5 27.5 21.0975 27.5 19.375C27.5 17.6525 28.9025 16.25 30.625 16.25C32.3475 16.25 33.75 17.6525 33.75 19.375C33.75 21.0975 32.3475 22.5 30.625 22.5ZM30.625 17.5C29.5917 17.5 28.75 18.3417 28.75 19.375C28.75 20.4083 29.5917 21.25 30.625 21.25C31.6583 21.25 32.5 20.4083 32.5 19.375C32.5 18.3417 31.6583 17.5 30.625 17.5Z" fill="#2962FF"/>
<path d="M26.25 22.5H25.4167C25.1867 22.5 25 22.3133 25 22.0833V15H26.25V22.5Z" fill="#2962FF"/>
<path d="M22.5 16.4583V16.8908C21.9758 16.4942 21.3308 16.25 20.625 16.25C18.9025 16.25 17.5 17.6525 17.5 19.375C17.5 21.0975 18.9025 22.5 20.625 22.5C21.3308 22.5 21.9758 22.2558 22.5 21.8592V22.0833C22.5 22.3133 22.6867 22.5 22.9167 22.5H23.75V16.4583H22.5ZM20.625 21.25C19.5917 21.25 18.75 20.4083 18.75 19.375C18.75 18.3417 19.5917 17.5 20.625 17.5C21.6583 17.5 22.5 18.3417 22.5 19.375C22.5 20.4083 21.6583 21.25 20.625 21.25Z" fill="#2962FF"/>
<path d="M17.7083 15H11.0417V16.25H15.4758L10.8333 21.6667H10.855C10.7192 21.8425 10.625 22.0525 10.625 22.2917V22.5H16.875C17.105 22.5 17.2917 22.3133 17.2917 22.0833V21.25H12.8575L17.5 15.8333H17.4783C17.6142 15.6575 17.7083 15.4475 17.7083 15.2083V15Z" fill="#2962FF"/>
</svg>
